<?xml version="1.0" encoding="UTF-8"?>
<!DOCTYPE svg PUBLIC "-//W3C//DTD SVG 1.1//EN" "http://www.w3.org/Graphics/SVG/1.1/DTD/svg11.dtd">
<svg xmlns="http://www.w3.org/2000/svg" version="1.1" width="3840px" height="2160px" style="shape-rendering:geometricPrecision; text-rendering:geometricPrecision; image-rendering:optimizeQuality; fill-rule:evenodd; clip-rule:evenodd" xmlns:xlink="http://www.w3.org/1999/xlink">
<g><path style="opacity:1" fill="#000000" d="M 1991.5,131.5 C 2009.85,131.766 2025.35,138.433 2038,151.5C 2057.8,149.296 2077.64,146.963 2097.5,144.5C 2097.1,148.07 2095.1,150.236 2091.5,151C 2087.48,155.851 2082.81,160.018 2077.5,163.5C 2070.83,169.833 2064.17,176.167 2057.5,182.5C 2067.49,201.298 2071.99,221.298 2071,242.5C 2068.72,253.891 2063.22,263.391 2054.5,271C 2043.8,279.351 2031.8,285.017 2018.5,288C 2016.27,290.997 2016.93,293.663 2020.5,296C 2032.3,301.313 2042.8,308.479 2052,317.5C 2059.33,332.161 2067.66,346.161 2077,359.5C 2084.67,368.182 2093.51,375.349 2103.5,381C 2121.84,384.848 2140.34,387.015 2159,387.5C 2179.36,387.208 2200.7,386.542 2223,385.5C 2223.33,385.833 2223.67,386.167 2224,386.5C 2229.08,385.693 2234.25,385.193 2239.5,385C 2286.48,341.908 2333.48,299.075 2380.5,256.5C 2381.77,255.572 2383.1,255.405 2384.5,256C 2394.81,274.128 2404.98,292.295 2415,310.5C 2415.86,314.544 2417.52,318.211 2420,321.5C 2420.67,322.833 2420.67,324.167 2420,325.5C 2375.24,367.255 2330.07,408.755 2284.5,450C 2295.67,452.148 2307,453.815 2318.5,455C 2323.2,456.227 2327.37,458.394 2331,461.5C 2331.67,462.833 2331.67,464.167 2331,465.5C 2326.26,469.785 2321.43,473.952 2316.5,478C 2302.06,485.553 2287.39,492.553 2272.5,499C 2295.92,517.452 2319.75,535.286 2344,552.5C 2351.66,544.011 2359.82,536.011 2368.5,528.5C 2388.57,512.636 2410.74,500.303 2435,491.5C 2500.67,471.74 2562.17,480.906 2619.5,519C 2628.45,525.28 2636.78,532.28 2644.5,540C 2648.67,545.202 2653.17,550.035 2658,554.5C 2666.19,566.114 2674.19,577.781 2682,589.5C 2716.59,662.74 2712.26,733.407 2669,801.5C 2618.96,867.73 2552.13,896.23 2468.5,887C 2412.17,876.776 2367,848.942 2333,803.5C 2288.27,734.618 2283.6,662.951 2319,588.5C 2322.03,584.302 2324.86,579.968 2327.5,575.5C 2305.45,558.613 2283.29,541.946 2261,525.5C 2248.77,596.87 2236.1,668.204 2223,739.5C 2221.65,750.881 2220.32,762.214 2219,773.5C 2225.63,788.593 2232.13,803.76 2238.5,819C 2263.17,819.333 2287.83,819.667 2312.5,820C 2320.73,823.103 2324.73,829.103 2324.5,838C 2323.21,843.247 2320.21,847.247 2315.5,850C 2287.79,858.01 2260.13,866.177 2232.5,874.5C 2236.38,907.289 2222.38,927.956 2190.5,936.5C 2181.18,937.947 2172.18,936.78 2163.5,933C 2159.13,930.486 2154.8,927.986 2150.5,925.5C 2142.62,928.458 2136.45,933.125 2132,939.5C 2155.56,985.982 2161.23,1034.65 2149,1085.5C 2128.14,1155.69 2083.31,1203.19 2014.5,1228C 1922.47,1252.54 1846.3,1228.37 1786,1155.5C 1785.53,1153.75 1784.86,1152.09 1784,1150.5C 1780.62,1146.78 1777.62,1142.78 1775,1138.5C 1742.31,1079.25 1737.98,1017.92 1762,954.5C 1793.94,885.071 1847.78,843.904 1923.5,831C 1936.16,830.5 1948.83,830.333 1961.5,830.5C 1965.84,802.606 1969,774.606 1971,746.5C 1958.23,737.203 1945.4,728.036 1932.5,719C 1919.95,708.786 1907.12,698.953 1894,689.5C 1868.52,716.881 1837.19,727.548 1800,721.5C 1791.5,713.593 1791.33,705.426 1799.5,697C 1802.63,695.601 1805.63,693.935 1808.5,692C 1822.81,680.844 1837.48,670.177 1852.5,660C 1845.09,652.925 1839.25,644.759 1835,635.5C 1828.7,611.826 1827.03,587.826 1830,563.5C 1832.29,543.109 1835.79,522.943 1840.5,503C 1840.17,502.5 1839.83,502 1839.5,501.5C 1828.52,506.482 1817.19,510.649 1805.5,514C 1757.74,524.705 1709.41,529.038 1660.5,527C 1641.31,526.436 1622.64,523.103 1604.5,517C 1598.02,514.077 1598.02,511.077 1604.5,508C 1659.64,488.263 1711.97,462.93 1761.5,432C 1775.63,424.433 1789.3,416.1 1802.5,407C 1804.83,406 1807.17,405 1809.5,404C 1833.75,388.088 1857.75,371.754 1881.5,355C 1908.33,334.088 1935.33,313.421 1962.5,293C 1965.02,290.651 1967.35,288.151 1969.5,285.5C 1955.3,278.042 1942.8,268.376 1932,256.5C 1927.04,247.306 1923.04,237.639 1920,227.5C 1919.32,221.115 1918.32,214.782 1917,208.5C 1914.22,186.778 1920.72,168.611 1936.5,154C 1952.58,141.016 1970.91,133.516 1991.5,131.5 Z M 2190.5,427.5 C 2194.3,427.516 2198.3,427.682 2202.5,428C 2207.16,434.841 2211.16,442.008 2214.5,449.5C 2191.57,452.008 2168.57,454.008 2145.5,455.5C 2139.75,455.45 2134.41,453.95 2129.5,451C 2125.78,447.615 2121.78,444.615 2117.5,442C 2114.07,437.81 2110.4,433.81 2106.5,430C 2134.39,429.266 2162.39,428.432 2190.5,427.5 Z M 2022.5,454.5 C 2029.03,462.201 2036.37,469.034 2044.5,475C 2069.66,491.68 2096.66,504.846 2125.5,514.5C 2153.58,506.028 2181.58,497.362 2209.5,488.5C 2216.25,492.42 2222.59,496.92 2228.5,502C 2199.38,528.449 2170.21,554.949 2141,581.5C 2126.49,570.44 2109.99,564.94 2091.5,565C 2048.15,563.585 2005.15,566.752 1962.5,574.5C 1961.59,573.21 1961.76,571.877 1963,570.5C 1976.49,548.192 1989.49,525.525 2002,502.5C 2005.79,493.596 2010.12,484.929 2015,476.5C 2017.23,469.05 2019.73,461.717 2022.5,454.5 Z M 2492.5,524.5 C 2524.59,523.189 2554.59,530.689 2582.5,547C 2590.8,552.31 2598.8,557.977 2606.5,564C 2615.04,571.873 2622.87,580.373 2630,589.5C 2650.08,618.405 2660.58,650.571 2661.5,686C 2659.32,747.075 2632.65,793.741 2581.5,826C 2526.15,855.133 2471.15,854.467 2416.5,824C 2361.95,787.728 2336.45,736.561 2340,670.5C 2342.1,645.524 2349.77,622.524 2363,601.5C 2393.17,624.336 2423.34,647.169 2453.5,670C 2456.5,671.667 2459.5,673.333 2462.5,675C 2471.41,681.563 2480.08,688.563 2488.5,696C 2497.22,700.989 2505.05,699.822 2512,692.5C 2515.56,681.483 2512.06,673.983 2501.5,670C 2492.57,663.409 2483.9,656.409 2475.5,649C 2468.16,643.95 2460.83,638.95 2453.5,634C 2439.65,623.575 2425.99,612.908 2412.5,602C 2401.14,594.32 2390.14,586.153 2379.5,577.5C 2402.9,552.789 2431.24,536.289 2464.5,528C 2473.99,526.912 2483.33,525.745 2492.5,524.5 Z M 2227.5,540.5 C 2228.65,540.791 2229.32,541.624 2229.5,543C 2218.87,603.15 2208.37,663.317 2198,723.5C 2194.09,716.689 2190.43,709.689 2187,702.5C 2178.94,683.373 2170.6,664.373 2162,645.5C 2160.36,641.58 2160.19,637.58 2161.5,633.5C 2161.11,624.574 2159.45,615.907 2156.5,607.5C 2172.04,593.127 2187.37,578.627 2202.5,564C 2204.17,563 2205.83,562 2207.5,561C 2210.24,556.589 2213.91,553.256 2218.5,551C 2221.39,547.376 2224.39,543.876 2227.5,540.5 Z M 2048.5,665.5 C 2028.7,684.029 2009.03,702.529 1989.5,721C 1986.45,721.857 1983.78,721.19 1981.5,719C 1963,703.955 1944,689.621 1924.5,676C 1966.08,675.108 2007.42,671.608 2048.5,665.5 Z M 2087.5,670.5 C 2075.4,703.675 2063.07,736.675 2050.5,769.5C 2036.88,760.196 2023.88,750.196 2011.5,739.5C 2035.42,717.405 2059.09,695.238 2082.5,673C 2084.45,672.634 2086.12,671.801 2087.5,670.5 Z M 2132.5,733.5 C 2134.59,733.561 2136.09,734.561 2137,736.5C 2152.57,760.632 2167.9,784.965 2183,809.5C 2182.48,818.954 2180.98,828.288 2178.5,837.5C 2172.89,839.541 2167.23,841.041 2161.5,842C 2141.76,826.479 2122.09,810.979 2102.5,795.5C 2112.53,774.776 2122.53,754.109 2132.5,733.5 Z M 1999.5,767.5 C 2013.1,776.891 2026.6,786.558 2040,796.5C 2040.67,798.5 2040.67,800.5 2040,802.5C 2035,810.84 2034.33,819.507 2038,828.5C 2039.83,830.333 2041.67,832.167 2043.5,834C 2074.23,846.203 2105.23,857.536 2136.5,868C 2137.12,869.4 2137.45,870.9 2137.5,872.5C 2134.91,881.677 2134.91,890.844 2137.5,900C 2136.25,902.303 2134.25,903.636 2131.5,904C 2127.31,907.36 2122.97,910.527 2118.5,913.5C 2094.03,881.857 2063.36,858.357 2026.5,843C 2014.97,839.323 2003.3,836.156 1991.5,833.5C 1994,811.482 1996.67,789.482 1999.5,767.5 Z M 1934.5,873.5 C 1942.17,873.5 1949.83,873.5 1957.5,873.5C 1951.07,927.022 1944.4,980.522 1937.5,1034C 1939.52,1047.23 1946.85,1051.57 1959.5,1047C 2005.06,1017.92 2050.73,989.091 2096.5,960.5C 2108.43,982.872 2114.43,1006.87 2114.5,1032.5C 2111.38,1101.65 2079.04,1151.48 2017.5,1182C 1955.99,1206.12 1899.32,1198.12 1847.5,1158C 1801.57,1116.88 1783.4,1065.72 1793,1004.5C 1800.59,965.931 1819.43,934.097 1849.5,909C 1874.6,889.449 1902.94,877.616 1934.5,873.5 Z M 1986.5,876.5 C 2025.62,884.531 2056.95,904.364 2080.5,936C 2073.56,940.921 2066.56,945.921 2059.5,951C 2029.5,969.425 1999.67,988.259 1970,1007.5C 1975.27,963.788 1980.77,920.121 1986.5,876.5 Z"/></g>
<g><path style="opacity:1" fill="#000000" d="M 2293.5,236.5 C 2311.21,236.961 2328.87,237.961 2346.5,239.5C 2346.54,242.81 2345.21,245.476 2342.5,247.5C 2320.64,267.199 2299.3,287.366 2278.5,308C 2276.83,309 2275.17,310 2273.5,311C 2259.8,325.029 2245.8,338.696 2231.5,352C 2228.38,355.307 2224.55,356.807 2220,356.5C 2204.44,355.684 2188.94,354.351 2173.5,352.5C 2172.34,350.776 2172.51,349.11 2174,347.5C 2214.26,311.028 2254.09,274.028 2293.5,236.5 Z"/></g>
<g><path style="opacity:1" fill="#000000" d="M 1495.5,709.5 C 1519.52,728.456 1543.35,747.79 1567,767.5C 1592.12,752.903 1616.79,737.57 1641,721.5C 1640.9,724.112 1640.57,726.779 1640,729.5C 1631.32,755.038 1622.48,780.538 1613.5,806C 1635.94,826.78 1658.6,847.113 1681.5,867C 1651.8,866.498 1622.13,864.998 1592.5,862.5C 1582.21,890.404 1571.38,918.071 1560,945.5C 1550.46,916.054 1541.63,886.387 1533.5,856.5C 1503.99,854.684 1474.66,851.517 1445.5,847C 1469.22,830.719 1493.05,814.553 1517,798.5C 1510.32,768.776 1503.15,739.109 1495.5,709.5 Z"/></g>
<g><path style="opacity:1" fill="#000000" d="M 1174.5,796.5 C 1198.16,815.986 1221.99,835.319 1246,854.5C 1270.6,839.116 1295.43,824.116 1320.5,809.5C 1320.83,809.833 1321.17,810.167 1321.5,810.5C 1311.73,837.962 1302.07,865.462 1292.5,893C 1303.81,903.647 1315.15,914.313 1326.5,925C 1332.66,928.744 1338,933.41 1342.5,939C 1346.08,940.246 1348.75,942.58 1350.5,946C 1354.05,949.056 1357.71,951.889 1361.5,954.5C 1360.83,954.833 1360.17,955.167 1359.5,955.5C 1330.24,952.516 1300.91,951.016 1271.5,951C 1260.85,977.788 1250.35,1004.62 1240,1031.5C 1237.07,1024.63 1234.4,1017.63 1232,1010.5C 1225.72,988.511 1219.56,966.511 1213.5,944.5C 1183.78,941.478 1154.11,938.145 1124.5,934.5C 1148.18,918.326 1172.02,902.326 1196,886.5C 1189.37,856.433 1182.21,826.433 1174.5,796.5 Z"/></g>
<g><path style="opacity:1" fill="#000000" d="M 1408.5,1029.5 C 1430.52,1046.66 1452.18,1064.49 1473.5,1083C 1475.37,1084.37 1477.37,1085.53 1479.5,1086.5C 1504.22,1071.39 1529.05,1056.39 1554,1041.5C 1545.52,1069.93 1536.02,1098.1 1525.5,1126C 1537.39,1136.47 1549.06,1147.14 1560.5,1158C 1564.08,1159.25 1566.75,1161.58 1568.5,1165C 1571.56,1167.72 1574.89,1170.06 1578.5,1172C 1583.31,1177.23 1588.31,1182.23 1593.5,1187C 1563.86,1185.22 1534.2,1183.72 1504.5,1182.5C 1494.36,1210.42 1483.52,1238.09 1472,1265.5C 1463.07,1235.92 1454.57,1206.26 1446.5,1176.5C 1422.86,1174.08 1399.19,1171.91 1375.5,1170C 1369.39,1169.49 1363.39,1168.49 1357.5,1167C 1381.83,1150.67 1406.17,1134.33 1430.5,1118C 1424.56,1093.4 1418.06,1068.9 1411,1044.5C 1410.57,1039.41 1409.74,1034.41 1408.5,1029.5 Z"/></g>
<g><path style="opacity:1" fill="#000000" d="M 665.5,1634.5 C 725.168,1634.33 784.834,1634.5 844.5,1635C 901.355,1643.19 935.521,1675.36 947,1731.5C 952.93,1768.53 945.597,1802.53 925,1833.5C 919.8,1838.37 914.967,1843.53 910.5,1849C 891.682,1864.61 870.016,1873.61 845.5,1876C 806.835,1876.5 768.168,1876.67 729.5,1876.5C 729.5,1928.5 729.5,1980.5 729.5,2032.5C 708.052,2033.4 686.718,2033.4 665.5,2032.5C 665.5,1899.83 665.5,1767.17 665.5,1634.5 Z M 729.5,1689.5 C 764.818,1689.77 800.151,1689.94 835.5,1690C 846.304,1691.23 855.304,1695.9 862.5,1704C 863.448,1704.48 864.448,1704.65 865.5,1704.5C 865.351,1705.55 865.517,1706.55 866,1707.5C 882.947,1727.3 888.281,1749.96 882,1775.5C 875.336,1801.17 859.169,1817 833.5,1823C 798.835,1823.5 764.168,1823.67 729.5,1823.5C 729.5,1778.83 729.5,1734.17 729.5,1689.5 Z"/></g>
<g><path style="opacity:1" fill="#000000" d="M 1576.5,1663.5 C 1596.83,1663.5 1617.17,1663.5 1637.5,1663.5C 1638.69,1690.69 1638.69,1717.85 1637.5,1745C 1657.17,1745.33 1676.83,1745.67 1696.5,1746C 1697.49,1761.76 1697.82,1777.59 1697.5,1793.5C 1677.49,1793.17 1657.49,1793.5 1637.5,1794.5C 1638.59,1848.29 1638.59,1902.12 1637.5,1956C 1638.13,1962.55 1639.3,1969.05 1641,1975.5C 1643.12,1979.31 1646.29,1981.81 1650.5,1983C 1654.09,1983.21 1657.59,1983.71 1661,1984.5C 1670.56,1983.63 1680.39,1983.3 1690.5,1983.5C 1690.82,2000.08 1690.49,2016.58 1689.5,2033C 1669.52,2035.33 1649.52,2035.66 1629.5,2034C 1605.05,2030.7 1588.55,2017.54 1580,1994.5C 1578.45,1985.87 1577.12,1977.21 1576,1968.5C 1575.5,1910.17 1575.33,1851.83 1575.5,1793.5C 1559.17,1793.5 1542.83,1793.5 1526.5,1793.5C 1526.5,1777.83 1526.5,1762.17 1526.5,1746.5C 1543.08,1746.82 1559.58,1746.49 1576,1745.5C 1576.39,1718.61 1576.56,1691.28 1576.5,1663.5 Z"/></g>
<g><path style="opacity:1" fill="#000000" d="M 2500.5,1663.5 C 2521.17,1663.5 2541.83,1663.5 2562.5,1663.5C 2562.5,1690.83 2562.5,1718.17 2562.5,1745.5C 2582.17,1745.5 2601.83,1745.5 2621.5,1745.5C 2621.5,1761.5 2621.5,1777.5 2621.5,1793.5C 2601.83,1793.5 2582.17,1793.5 2562.5,1793.5C 2562.03,1852.19 2562.53,1910.86 2564,1969.5C 2568.07,1980.96 2576.24,1985.96 2588.5,1984.5C 2597.5,1983.59 2606.84,1983.26 2616.5,1983.5C 2617.14,2000.24 2616.48,2016.74 2614.5,2033C 2594.85,2035.36 2575.18,2035.7 2555.5,2034C 2537.55,2032.12 2523.38,2023.95 2513,2009.5C 2505.4,1994.77 2501.4,1979.1 2501,1962.5C 2500.5,1906.17 2500.33,1849.83 2500.5,1793.5C 2484.5,1793.5 2468.5,1793.5 2452.5,1793.5C 2452.5,1777.83 2452.5,1762.17 2452.5,1746.5C 2468.5,1746.5 2484.5,1746.5 2500.5,1746.5C 2500.5,1718.83 2500.5,1691.17 2500.5,1663.5 Z"/></g>
<g><path style="opacity:1" fill="#000000" d="M 1084.5,1740.5 C 1145.89,1738.77 1193.05,1763.44 1226,1814.5C 1251.64,1864.02 1251.97,1913.68 1227,1963.5C 1214.71,1983.95 1198.88,2000.95 1179.5,2014.5C 1119.11,2049.73 1060.44,2047.23 1003.5,2007C 955.86,1964.74 939.026,1912.24 953,1849.5C 966.843,1805.32 994.676,1773.15 1036.5,1753C 1052.16,1747.05 1068.16,1742.88 1084.5,1740.5 Z M 1091.5,1798.5 C 1121.59,1798.02 1146.76,1808.68 1167,1830.5C 1195.67,1870.17 1195.67,1909.83 1167,1949.5C 1131.43,1985.13 1091.6,1991.29 1047.5,1968C 1009.91,1939.87 997.742,1903.04 1011,1857.5C 1026.12,1821.88 1052.95,1802.22 1091.5,1798.5 Z"/></g>
<g><path style="opacity:1" fill="#000000" d="M 1380.5,1740.5 C 1413.09,1739.64 1443.09,1747.81 1470.5,1765C 1491.72,1782.09 1504.05,1804.26 1507.5,1831.5C 1487.2,1835.36 1466.86,1839.03 1446.5,1842.5C 1443.88,1814.38 1428.55,1798.55 1400.5,1795C 1383.24,1792.29 1366.91,1794.95 1351.5,1803C 1345.87,1807.63 1341.37,1813.13 1338,1819.5C 1334.77,1834.21 1339.94,1844.71 1353.5,1851C 1373.94,1857.64 1394.94,1861.3 1416.5,1862C 1435.15,1864.83 1453.15,1869.83 1470.5,1877C 1479.23,1882.4 1487.4,1888.56 1495,1895.5C 1499.5,1901.82 1503.5,1908.49 1507,1915.5C 1520.73,1980.54 1495.23,2020.38 1430.5,2035C 1395.8,2042.5 1361.8,2040.16 1328.5,2028C 1301.43,2016.27 1282.6,1996.77 1272,1969.5C 1269.86,1962.9 1268.02,1956.24 1266.5,1949.5C 1268.22,1948.07 1270.22,1947.23 1272.5,1947C 1290.85,1943.9 1309.18,1940.73 1327.5,1937.5C 1332.45,1966.31 1349.45,1982.48 1378.5,1986C 1393.08,1987.2 1407.41,1985.87 1421.5,1982C 1431.11,1978.04 1439.27,1972.21 1446,1964.5C 1450.73,1955.09 1451.39,1945.42 1448,1935.5C 1445.97,1930.14 1442.47,1925.97 1437.5,1923C 1428.78,1919.14 1419.78,1916.14 1410.5,1914C 1390.45,1911.75 1370.45,1909.08 1350.5,1906C 1292.91,1897.21 1268.75,1864.04 1278,1806.5C 1287.57,1782.26 1304.07,1764.43 1327.5,1753C 1335.48,1750.35 1343.48,1747.68 1351.5,1745C 1361.21,1742.82 1370.88,1741.32 1380.5,1740.5 Z"/></g>
<g><path style="opacity:1" fill="#000000" d="M 1868.5,1740.5 C 1905.41,1738.87 1933.91,1753.21 1954,1783.5C 1954.86,1781.91 1955.53,1780.25 1956,1778.5C 1987.26,1746.22 2025.09,1734.72 2069.5,1744C 2093.59,1749.44 2112.09,1762.61 2125,1783.5C 2130,1794.82 2134,1806.49 2137,1818.5C 2138.94,1834.35 2140.44,1850.18 2141.5,1866C 2141.82,1921.3 2141.49,1976.8 2140.5,2032.5C 2120.46,2033.25 2100.62,2033.25 2081,2032.5C 2080.83,1978.6 2080.33,1924.76 2079.5,1871C 2079.96,1870.59 2080.29,1870.09 2080.5,1869.5C 2079.77,1857.43 2078.27,1845.43 2076,1833.5C 2065.1,1800.63 2042.6,1787.79 2008.5,1795C 2002.9,1796.8 1997.57,1799.13 1992.5,1802C 1989.02,1806.31 1985.35,1810.48 1981.5,1814.5C 1975.51,1827.12 1972.01,1840.46 1971,1854.5C 1970.5,1913.83 1970.33,1973.17 1970.5,2032.5C 1949.83,2032.5 1929.17,2032.5 1908.5,2032.5C 1908.67,1977.5 1908.5,1922.5 1908,1867.5C 1909.52,1848.63 1905.69,1830.97 1896.5,1814.5C 1886.22,1799.94 1872.05,1792.94 1854,1793.5C 1829.59,1793.33 1813.25,1804.66 1805,1827.5C 1801.74,1836.56 1799.74,1845.89 1799,1855.5C 1798.5,1914.5 1798.33,1973.5 1798.5,2032.5C 1778.17,2032.5 1757.83,2032.5 1737.5,2032.5C 1737.5,1937.17 1737.5,1841.83 1737.5,1746.5C 1755.84,1746.33 1774.17,1746.5 1792.5,1747C 1794.66,1756.47 1796.83,1765.97 1799,1775.5C 1801.48,1772.05 1804.31,1768.88 1807.5,1766C 1825.51,1752 1845.84,1743.5 1868.5,1740.5 Z"/></g>
<g><path style="opacity:1" fill="#000000" d="M 2295.5,1740.5 C 2324.26,1738.72 2351.93,1743.22 2378.5,1754C 2384.19,1757.7 2389.85,1761.36 2395.5,1765C 2417.36,1785.22 2429.19,1810.39 2431,1840.5C 2431.04,1884.19 2431.71,1927.86 2433,1971.5C 2433.93,1976.42 2436.43,1980.25 2440.5,1983C 2447.87,1983.73 2455.2,1983.56 2462.5,1982.5C 2462.5,1999.17 2462.5,2015.83 2462.5,2032.5C 2447.76,2036.03 2433.09,2037.53 2418.5,2037C 2404.31,2035.52 2392.81,2029.35 2384,2018.5C 2380.54,2011.64 2377.54,2004.64 2375,1997.5C 2344.71,2030.2 2307.21,2043.37 2262.5,2037C 2253.1,2034.87 2243.77,2032.53 2234.5,2030C 2194.25,2011.01 2176.75,1979.18 2182,1934.5C 2183.6,1926.44 2186.26,1918.78 2190,1911.5C 2205.73,1888.69 2227.23,1873.85 2254.5,1867C 2261.08,1865.24 2267.75,1863.9 2274.5,1863C 2306.47,1861.57 2338.47,1861.07 2370.5,1861.5C 2371.24,1848.31 2370.08,1835.31 2367,1822.5C 2366,1820.5 2365,1818.5 2364,1816.5C 2359.47,1811.97 2354.97,1807.47 2350.5,1803C 2324.47,1790.48 2298.47,1790.48 2272.5,1803C 2259.54,1814.09 2252.87,1828.26 2252.5,1845.5C 2232.19,1841.7 2211.86,1838.04 2191.5,1834.5C 2191.17,1833.83 2190.83,1833.17 2190.5,1832.5C 2192.37,1822.34 2194.87,1812.34 2198,1802.5C 2201.83,1794.84 2206.16,1787.5 2211,1780.5C 2216.19,1775.97 2221.03,1771.14 2225.5,1766C 2246.68,1751.66 2270.01,1743.16 2295.5,1740.5 Z M 2294.5,1908.5 C 2319.83,1908.5 2345.17,1908.5 2370.5,1908.5C 2373.15,1943.7 2358.15,1967.87 2325.5,1981C 2307.34,1986.07 2289,1986.74 2270.5,1983C 2245.82,1972.42 2238.66,1954.58 2249,1929.5C 2255.24,1921.12 2263.4,1915.28 2273.5,1912C 2280.62,1910.74 2287.62,1909.57 2294.5,1908.5 Z"/></g>
<g><path style="opacity:1" fill="#000000" d="M 2749.5,1740.5 C 2785.05,1737.43 2817.39,1745.93 2846.5,1766C 2867.19,1783.73 2881.02,1805.9 2888,1832.5C 2893.33,1857.6 2894.83,1882.94 2892.5,1908.5C 2827.19,1909.16 2761.85,1909.16 2696.5,1908.5C 2697.78,1942.92 2713.78,1967.76 2744.5,1983C 2764.09,1988.32 2783.75,1986.66 2803.5,1978C 2811.28,1974.09 2818.12,1968.92 2824,1962.5C 2828.25,1957.01 2832.25,1951.34 2836,1945.5C 2838.06,1941.73 2839.22,1937.73 2839.5,1933.5C 2843.49,1934 2847.49,1934.5 2851.5,1935C 2866.82,1939.94 2882.15,1944.77 2897.5,1949.5C 2880.59,1997.77 2846.93,2026.61 2796.5,2036C 2730.92,2046.45 2681.76,2023.29 2649,1966.5C 2633.25,1930.62 2628.58,1893.29 2635,1854.5C 2641,1818.99 2657.5,1789.49 2684.5,1766C 2689.04,1764.12 2693.04,1761.45 2696.5,1758C 2713.19,1748.92 2730.86,1743.08 2749.5,1740.5 Z M 2759.5,1792.5 C 2770.34,1792.25 2781.01,1794.09 2791.5,1798C 2794.13,1800.15 2797.13,1801.48 2800.5,1802C 2818.77,1817.38 2827.77,1837.22 2827.5,1861.5C 2784.83,1861.5 2742.17,1861.5 2699.5,1861.5C 2699.73,1836.2 2710.06,1816.36 2730.5,1802C 2739.64,1796.81 2749.31,1793.64 2759.5,1792.5 Z"/></g>
<g><path style="opacity:1" fill="#000000" d="M 3032.5,1740.5 C 3065.17,1739.68 3095.17,1747.85 3122.5,1765C 3143.76,1782.01 3155.76,1804.18 3158.5,1831.5C 3138.54,1835.43 3118.54,1839.1 3098.5,1842.5C 3095.83,1815 3080.83,1799.17 3053.5,1795C 3033.35,1791.63 3015.02,1795.63 2998.5,1807C 2995.24,1811.25 2992.41,1815.75 2990,1820.5C 2987.53,1831.24 2990.36,1840.24 2998.5,1847.5C 3004.36,1850.26 3010.36,1852.76 3016.5,1855C 3035.67,1858.81 3055.01,1861.48 3074.5,1863C 3088.4,1865.86 3102.07,1869.52 3115.5,1874C 3151.7,1890.37 3167.53,1918.54 3163,1958.5C 3161.4,1968.96 3158.4,1978.96 3154,1988.5C 3140.88,2008.93 3122.71,2023.1 3099.5,2031C 3058.64,2043.39 3018.31,2042.05 2978.5,2027C 2944.95,2011.44 2924.95,1985.44 2918.5,1949C 2937.79,1945.18 2957.12,1941.35 2976.5,1937.5C 2977.5,1937.83 2978.5,1938.17 2979.5,1938.5C 2985.1,1966.62 3002.1,1982.46 3030.5,1986C 3046.92,1987.38 3062.92,1985.38 3078.5,1980C 3083.17,1977 3087.83,1974 3092.5,1971C 3105.17,1956.47 3105.67,1941.63 3094,1926.5C 3085.79,1920.65 3076.62,1916.82 3066.5,1915C 3046.91,1911.8 3027.24,1909.13 3007.5,1907C 2991.62,1904.06 2976.29,1899.39 2961.5,1893C 2957.84,1889.84 2953.84,1887.17 2949.5,1885C 2927.87,1860.71 2922.04,1832.88 2932,1801.5C 2942.12,1779.38 2958.28,1763.22 2980.5,1753C 2997.31,1746.08 3014.64,1741.91 3032.5,1740.5 Z"/></g>
</svg>
